# xmcd
#
# Track frame offsets: 
#        150
#        16633
#        33424
#        53206
#        75049
#        93081
#        104459
#        116457
#        132324
#        142251
#
# Disc length: 2139 seconds
#
# Revision: 0
# Processed by: cddbd v1.5.2PL0 Copyright (c) Steve Scherf et al.
# Submitted via: ExactAudioCopyFreeDBPlugin 1.0
#
DISCID=7308590a
DTITLE=Various Artist - Superstar Christmas: New Country
DYEAR=2009
DGENRE=Christmas
TTITLE0=Kenny Chesney - Christmas In Dixie
TTITLE1=Brooks and Dunn - It Won't Be Christmas Without You
TTITLE2=Lonestar - Have Yourself A Merry Little Christmas
TTITLE3=Sara Evans - O Come All Ye Faithful
TTITLE4=Diamond Rio - Christmas Spirit
TTITLE5=Martina McBride - Hark! Here The Herald Angels Sing
TTITLE6=Tracy Byrd - Merry Christmas From Texas Y'all
TTITLE7=Mary Chapin Carpenter - Bells Are Ringing
TTITLE8=Sweethearts Of The Rodeo - Jingle Bell Rock
TTITLE9=Montgomery Gentry - Merry Christmas From The Family
EXTD=
EXTT0=
EXTT1=
EXTT2=
EXTT3=
EXTT4=
EXTT5=
EXTT6=
EXTT7=
EXTT8=
EXTT9=
PLAYORDER=
